<?xml version="1.0" encoding="UTF-8" standalone="no"?>
<!DOCTYPE svg PUBLIC "-//W3C//DTD SVG 1.1//EN" "http://www.w3.org/Graphics/SVG/1.1/DTD/svg11.dtd">
<svg version="1.1" xmlns="http://www.w3.org/2000/svg" xmlns:xlink="http://www.w3.org/1999/xlink" preserveAspectRatio="xMidYMid meet" viewBox="0 0 9 9" width="9" height="9"><defs><path d="M0 0L9 0L9 9L0 9L0 0Z" id="g1XX8lUYG"></path><path d="M1 1L7.99 1L7.99 7.99L1 7.99L1 1Z" id="aGwbX7GZ2"></path><path d="M2 2L3 2L3 8L2 8L2 2Z" id="d2ArqrTnJr"></path><path d="M6 2L7 2L7 8L6 8L6 2Z" id="aaXjm8L2"></path><path d="M4 1L5 1L5 3.01L4 3.01L4 1Z" id="a55NqUimCA"></path><path d="M3 4L6 4L6 5L3 5L3 4Z" id="cfFUe42tZ"></path><path d="M4 6L6 6L6 7L4 7L4 6Z" id="g5kdZGZYLo"></path></defs><g><g><g><use xlink:href="#g1XX8lUYG" opacity="1" fill="#000000" fill-opacity="1"></use></g><g><use xlink:href="#aGwbX7GZ2" opacity="1" fill="#ffffff" fill-opacity="1"></use></g><g><use xlink:href="#d2ArqrTnJr" opacity="1" fill="#000000" fill-opacity="1"></use></g><g><use xlink:href="#aaXjm8L2" opacity="1" fill="#000000" fill-opacity="1"></use></g><g><use xlink:href="#a55NqUimCA" opacity="1" fill="#000000" fill-opacity="1"></use></g><g><use xlink:href="#cfFUe42tZ" opacity="1" fill="#000000" fill-opacity="1"></use></g><g><use xlink:href="#g5kdZGZYLo" opacity="1" fill="#000000" fill-opacity="1"></use></g></g></g></svg>